<svg width="512" height="512" viewBox="0 0 512 512" fill="none" xmlns="http://www.w3.org/2000/svg">
<rect width="512" height="512" rx="200" fill="#4340FF"/>
<path d="M154 219V180.5H187.5V164.5H154V140.5H193.5V124H135V219H154Z" fill="white" stroke="white" stroke-width="3"/>
<path d="M211.5 139.5C221.5 127.5 227.5 123 245 122C262.5 123 269.752 127.351 279.5 139.5C284.794 150.443 287.162 157.05 288 171.5C286.995 186.574 284.973 193.735 278.5 204C268.129 216.765 260.598 220.047 245 221C230.441 219.097 222.558 217.139 211.5 204C205.083 193.168 202.553 186.456 203 171.5C203.418 157.5 205 150.5 211.5 139.5Z" fill="white"/>
<path d="M306.5 219V124.5H325V203H364V219H306.5Z" fill="white"/>
<path d="M144.5 373V278H163.5V373H144.5Z" fill="white"/>
<path d="M206.5 278H187V373H205L203 302.5L240.5 373H259.5V278H241.5L243.5 348.5L206.5 278Z" fill="white"/>
<path d="M283 373V278H302V319L333.5 278H354.5L326 315.5L360 373H338.5L314 330L302 347V373H283Z" fill="white"/>
<path d="M211.5 139.5C221.5 127.5 227.5 123 245 122C262.5 123 269.752 127.351 279.5 139.5C284.794 150.443 287.162 157.05 288 171.5C286.995 186.574 284.973 193.735 278.5 204C268.129 216.765 260.598 220.047 245 221C230.441 219.097 222.558 217.139 211.5 204C205.083 193.168 202.553 186.456 203 171.5C203.418 157.5 205 150.5 211.5 139.5Z" stroke="white" stroke-width="3"/>
<path d="M306.5 219V124.5H325V203H364V219H306.5Z" stroke="white" stroke-width="3"/>
<path d="M144.5 373V278H163.5V373H144.5Z" stroke="white" stroke-width="3"/>
<path d="M206.5 278H187V373H205L203 302.5L240.5 373H259.5V278H241.5L243.5 348.5L206.5 278Z" stroke="white" stroke-width="3"/>
<path d="M283 373V278H302V319L333.5 278H354.5L326 315.5L360 373H338.5L314 330L302 347V373H283Z" stroke="white" stroke-width="3"/>
<path d="M228 148.5C232.596 141.94 235.989 139.152 246 138.5C254.12 139.726 257.848 141.866 263 148.5C267.335 156.844 268.151 161.704 268.5 170.5C267.428 182.433 266.153 187.706 262.5 194.5C256.053 202.842 251.812 204.538 243.5 204C236.981 202.949 233.638 200.92 228 194.5C223.103 185.985 222.132 180.659 222.5 170.5C223.059 161.761 223.997 156.919 228 148.5Z" fill="#4340FF" stroke="white" stroke-width="3"/>
<path d="M239 159.5C243.596 152.94 246.989 150.152 257 149.5C265.12 150.726 268.848 152.866 274 159.5C278.335 167.844 279.151 172.704 279.5 181.5C278.428 193.433 277.153 198.706 273.5 205.5C267.053 213.842 262.812 215.538 254.5 215C247.981 213.949 244.638 211.92 239 205.5C234.103 196.985 233.132 191.659 233.5 181.5C234.059 172.761 234.997 167.919 239 159.5Z" stroke="white" stroke-width="3"/>
<path d="M165 230V191.5H198.5V175.5H165V151.5H204.5V135H146V230H165Z" stroke="white" stroke-width="3"/>
<path d="M222.5 150.5C232.5 138.5 238.5 134 256 133C273.5 134 280.752 138.351 290.5 150.5C295.794 161.443 298.162 168.05 299 182.5C297.995 197.574 295.973 204.735 289.5 215C279.129 227.765 271.598 231.047 256 232C241.441 230.097 233.558 228.139 222.5 215C216.083 204.168 213.553 197.456 214 182.5C214.418 168.5 216 161.5 222.5 150.5Z" stroke="white" stroke-width="3"/>
<path d="M317.5 230V135.5H336V214H375V230H317.5Z" stroke="white" stroke-width="3"/>
<path d="M155.5 384V289H174.5V384H155.5Z" stroke="white" stroke-width="3"/>
<path d="M217.5 289H198V384H216L214 313.5L251.5 384H270.5V289H252.5L254.5 359.5L217.5 289Z" stroke="white" stroke-width="3"/>
<path d="M294 384V289H313V330L344.5 289H365.5L337 326.5L371 384H349.5L325 341L313 358V384H294Z" stroke="white" stroke-width="3"/>
</svg>
